<svg xmlns="http://www.w3.org/2000/svg"
     viewBox="0 0 64 64"
     width="64"
     height="64">

  <defs>
    <linearGradient id="grad" x1="0%" y1="0%" x2="100%" y2="100%">
      <stop offset="0%" stop-color="#6C63FF"/>
      <stop offset="100%" stop-color="#F7436D"/>
    </linearGradient>
  </defs>

  <!-- Document -->
  <path d="M16 4H40L56 20V56C56 58.2 54.2 60 52 60H16C13.8 60 12 58.2 12 56V8C12 5.8 13.8 4 16 4Z"
        fill="white"
        stroke="url(#grad)"
        stroke-width="2.5"/>

  <!-- Folded Corner -->
  <path d="M40 4V20H56"
        fill="none"
        stroke="url(#grad)"
        stroke-width="2.5"
        stroke-linejoin="round"/>

  <path d="M40 4L56 20H40Z"
        fill="url(#grad)"
        opacity="0.12"/>

  <!-- Content Lines -->
  <rect x="20" y="18" width="18" height="3" rx="1.5"
        fill="url(#grad)" opacity="0.85"/>

  <rect x="20" y="26" width="24" height="3" rx="1.5"
        fill="url(#grad)" opacity="0.65"/>

  <rect x="20" y="34" width="20" height="3" rx="1.5"
        fill="url(#grad)" opacity="0.50"/>

  <rect x="20" y="42" width="16" height="3" rx="1.5"
        fill="url(#grad)" opacity="0.35"/>

</svg>